<?xml version="1.0" standalone="no"?>
<!DOCTYPE svg PUBLIC "-//W3C//DTD SVG 20010904//EN"
 "http://www.w3.org/TR/2001/REC-SVG-20010904/DTD/svg10.dtd">
<svg version="1.0" xmlns="http://www.w3.org/2000/svg"
 width="720.000000pt" height="720.000000pt" viewBox="0 0 720.000000 720.000000"
 preserveAspectRatio="xMidYMid meet">
<metadata>
Created by potrace 1.14, written by Peter Selinger 2001-2017
</metadata>
<g transform="translate(0.000000,720.000000) scale(0.100000,-0.100000)"
fill="#000000" stroke="none">
<path d="M2 5718 c2 -1180 6 -1482 15 -1480 7 1 13 -2 13 -8 0 -5 -7 -10 -15
-10 -13 0 -15 -253 -15 -2110 l0 -2110 3600 0 3600 0 0 2919 c0 2917 0 2919
-20 2924 -24 6 -52 68 -48 106 2 18 12 30 36 40 l32 15 0 598 0 598 -3600 0
-3600 0 2 -1482z m2978 1042 c0 -33 3 -40 20 -40 19 0 20 -7 20 -160 0 -100
-4 -160 -10 -160 -6 0 -10 -33 -10 -79 0 -76 -1 -79 -26 -85 -14 -4 -35 -4
-46 0 -23 7 -23 -37 -2 424 7 139 7 140 30 140 21 0 24 -5 24 -40z m1130
-1247 c0 -36 -131 -196 -194 -236 -15 -10 -25 -21 -22 -24 6 -6 120 80 154
117 19 20 22 21 18 6 -6 -16 -4 -17 9 -6 8 7 15 19 15 26 0 8 4 14 9 14 5 0
13 9 16 20 7 23 25 27 25 5 0 -18 9 -19 33 -1 12 9 14 15 6 18 -16 5 -1 48 17
48 12 0 12 -4 4 -21 -7 -11 -9 -23 -6 -26 15 -16 -39 -83 -106 -130 -106 -77
-147 -103 -161 -103 -16 0 -155 -69 -141 -69 6 -1 32 5 57 13 25 7 48 12 50 9
3 -2 37 9 76 26 40 17 69 25 65 18 -6 -9 -4 -9 7 -1 20 15 152 69 162 66 4 -1
7 4 7 12 0 8 7 17 16 20 13 5 15 1 12 -19 -6 -29 15 -35 31 -7 6 9 11 12 11 7
0 -6 28 -10 70 -8 53 1 70 -2 70 -12 0 -7 6 -20 14 -27 7 -8 17 -45 21 -83 4
-39 13 -82 21 -97 10 -19 11 -28 3 -28 -6 0 -8 -7 -4 -17 3 -10 12 -45 19 -79
11 -54 11 -62 -3 -73 -13 -10 -12 -10 7 -5 22 5 23 4 13 -15 -7 -12 -13 -21
-14 -21 -2 0 -34 16 -72 36 -64 33 -78 36 -162 39 -50 1 -98 -2 -105 -6 -9 -6
-3 -9 17 -9 26 -1 27 -2 12 -11 -12 -7 -27 -7 -47 -1 -23 8 -42 5 -99 -16 -39
-15 -71 -32 -71 -38 0 -6 -7 -17 -15 -24 -9 -7 -14 -18 -12 -25 3 -6 -6 -21
-19 -34 -21 -20 -33 -51 -19 -51 9 0 110 40 135 54 14 7 55 16 91 20 37 3 89
13 115 21 65 20 114 20 114 0 0 -8 3 -16 8 -16 4 -1 19 -3 34 -5 47 -5 75 -35
92 -94 27 -100 58 -185 71 -195 13 -11 26 -50 45 -136 10 -44 10 -92 1 -220
-6 -90 -12 -172 -12 -181 0 -10 -3 -18 -7 -18 -4 0 -14 -21 -21 -47 -7 -27
-17 -59 -21 -73 -5 -14 -8 -34 -8 -45 3 -50 -3 -75 -17 -75 -10 0 -15 -10 -15
-32 0 -18 -7 -52 -15 -76 -9 -24 -13 -47 -10 -52 7 -11 -23 -61 -42 -73 -7 -4
-13 -21 -13 -37 0 -16 -4 -31 -9 -35 -15 -9 -21 27 -12 65 5 19 9 27 10 17 2
-28 21 -9 21 20 0 18 4 24 14 20 11 -4 14 2 13 26 0 18 3 40 7 50 5 10 4 17
-3 17 -6 0 -16 -20 -22 -45 -10 -41 -29 -71 -29 -46 0 6 -7 8 -15 5 -9 -4 -16
3 -21 22 -7 28 -7 28 -16 5 -4 -13 -8 -35 -8 -50 0 -14 -2 -41 -6 -59 -6 -30
-7 -31 -21 -15 -13 16 -14 15 -9 -14 5 -32 -7 -45 -18 -20 -3 6 -4 0 -1 -15 3
-15 1 -30 -5 -33 -5 -3 -10 -16 -10 -28 0 -22 1 -22 20 3 16 20 20 22 20 7 0
-24 -49 -77 -66 -70 -8 3 -22 2 -31 -1 -12 -5 -14 -9 -5 -18 7 -7 12 -21 12
-32 0 -19 -1 -19 -23 2 -29 27 -41 28 -27 3 16 -31 12 -35 -10 -10 l-20 24 10
-28 c5 -16 15 -37 21 -49 9 -17 8 -19 -7 -16 -10 2 -28 -7 -41 -20 -18 -18
-21 -27 -13 -41 7 -15 5 -20 -10 -24 -20 -5 -28 -27 -10 -27 6 0 10 -7 10 -15
0 -9 -6 -12 -15 -9 -12 5 -14 0 -9 -24 8 -39 -13 -53 -37 -24 -19 24 -51 30
-48 10 1 -7 1 -38 0 -68 -2 -45 -4 -51 -12 -32 -5 13 -6 36 -2 50 6 24 5 26
-10 13 -15 -12 -17 -11 -17 10 0 13 -4 31 -9 38 -8 12 -11 8 -16 -15 -4 -16
-11 -39 -16 -52 -5 -13 -10 -37 -10 -55 l-2 -32 -10 38 c-6 20 -14 37 -19 37
-5 0 -6 5 -2 12 4 7 3 8 -4 4 -7 -4 -12 -26 -12 -49 0 -28 -3 -37 -9 -28 -7
11 -10 10 -14 -5 -3 -11 -5 -4 -6 16 -2 54 -17 69 -24 23 -4 -21 -7 -54 -8
-73 -1 -19 -3 -26 -6 -15 -16 77 -13 73 -28 38 -9 -22 -21 -33 -34 -33 -11 0
-23 -4 -26 -10 -11 -17 -40 -11 -54 11 -10 18 -15 19 -22 8 -7 -11 -9 -11 -9
3 0 9 -5 20 -11 24 -8 5 -10 -1 -6 -18 7 -25 5 -25 -40 -23 -49 2 -57 9 -68
59 -5 23 -8 27 -15 15 -5 -7 -7 -22 -4 -32 3 -9 -1 -24 -9 -32 -13 -12 -15
-12 -20 5 -3 10 -1 20 3 22 5 2 2 12 -5 22 -11 15 -17 17 -29 7 -8 -6 -12 -20
-9 -30 3 -10 -1 -22 -7 -26 -9 -5 -10 -1 -5 15 5 14 3 20 -3 16 -6 -3 -18 -3
-27 0 -13 5 -15 14 -11 36 3 17 2 27 -4 23 -5 -3 -13 2 -18 11 -9 15 -10 15
-16 -4 -4 -12 -14 -22 -22 -22 -16 0 -19 16 -4 25 6 3 10 13 10 21 0 14 -2 13
-16 0 -21 -22 -27 -20 -14 3 13 25 -5 38 -19 14 -18 -33 -23 -5 -6 32 18 36
12 65 -6 32 -12 -21 -33 -23 -26 -3 4 9 -8 27 -27 44 -29 26 -32 31 -20 47 8
10 14 24 14 29 0 6 -5 3 -10 -6 -9 -14 -15 -15 -41 -6 -25 8 -30 15 -27 37 4
39 -36 42 -70 5 l-26 -27 -9 26 c-6 20 -15 27 -34 27 -35 0 -23 25 13 26 45 2
47 3 35 17 -11 14 -74 17 -87 4 -19 -19 -31 -5 -29 32 3 52 -10 73 -30 47 -20
-26 -69 -14 -60 14 4 12 2 20 -5 20 -6 0 -16 14 -21 30 -11 29 -23 38 -32 23
-2 -5 -2 -2 -1 5 2 6 -1 12 -6 12 -5 0 -12 9 -15 21 -4 12 -16 30 -26 40 -10
10 -19 31 -20 47 0 15 -3 21 -6 14 -9 -23 -23 -1 -23 39 0 40 -15 54 -23 22
-3 -10 -5 -4 -6 13 0 17 6 37 14 44 8 7 12 16 9 21 -3 5 -16 -3 -29 -19 -22
-25 -24 -25 -18 -4 3 13 1 22 -6 22 -7 0 -9 5 -5 11 17 28 21 75 6 88 -10 10
-12 25 -8 50 3 24 2 31 -4 21 -12 -19 -24 -6 -25 28 -4 107 -5 111 -19 106
-16 -6 -26 24 -26 82 0 25 -6 47 -15 54 -8 7 -16 9 -16 4 -1 -5 -6 11 -12 36
-9 43 -11 294 -3 407 2 29 0 50 -4 48 -13 -8 2 119 16 140 18 25 18 36 0 29
-11 -4 -13 0 -9 15 5 21 33 51 156 164 37 34 78 79 92 100 65 96 140 139 270
157 54 7 112 23 145 38 71 34 83 36 77 11 -3 -12 0 -19 9 -19 25 0 99 48 98
63 -1 10 4 13 14 10 10 -4 13 -2 8 5 -4 7 -3 19 2 29 10 16 -2 50 -22 64 -11
8 12 51 24 44 5 -3 7 -13 4 -23 -5 -15 -4 -15 9 1 12 15 16 15 20 3 5 -12 12
-13 42 -3 30 9 38 8 46 -4 7 -11 9 -9 9 9 0 12 6 22 14 22 7 0 24 10 37 23 22
19 28 21 49 10 22 -11 15 -19 -13 -14 -4 1 -16 -6 -25 -16 -16 -16 -16 -16 1
-10 27 10 20 -9 -13 -36 -34 -29 -37 -37 -15 -37 8 0 15 4 15 10 0 5 6 7 14 4
12 -4 11 -9 -5 -25 -11 -11 -24 -17 -30 -14 -5 4 -24 -6 -42 -21 -17 -15 -24
-25 -14 -21 10 4 23 7 28 7 6 0 8 4 5 9 -8 12 19 22 30 11 6 -6 44 12 92 40
45 28 84 50 87 50 2 0 -4 -16 -15 -36 -11 -19 -18 -39 -15 -45 4 -5 -5 -9 -19
-9 -14 0 -26 -4 -26 -10 0 -5 7 -7 15 -4 8 4 15 4 15 0 0 -3 -19 -10 -42 -17
-55 -14 -152 -58 -145 -65 3 -3 25 4 49 15 24 11 57 23 73 27 27 7 29 6 16 -9
-18 -22 0 -22 45 -1 40 19 54 12 36 -16 -21 -34 1 -22 63 36 33 30 79 67 103
81 23 14 42 29 42 34 0 5 8 13 18 16 9 4 23 13 30 20 7 7 22 13 32 13 12 0 17
5 14 13 -2 7 15 25 41 41 25 16 45 33 45 37 0 5 9 9 20 9 11 0 20 -3 20 -7z
m-3472 -313 c-2 -52 -7 -81 -15 -84 -7 -3 -13 -21 -13 -41 0 -34 1 -35 40 -35
40 0 40 0 40 -37 0 -31 5 -40 25 -50 19 -8 23 -8 18 0 -4 7 5 4 20 -6 23 -15
27 -15 27 -2 0 8 5 15 10 15 15 0 12 -29 -4 -45 -22 -22 -94 4 -79 29 4 6 -1
4 -11 -4 -22 -17 -66 -25 -66 -10 0 5 -6 9 -12 8 -9 -2 -14 14 -16 47 -2 27
-7 52 -12 55 -15 9 1 80 17 80 12 0 14 15 11 80 -2 61 0 80 10 80 10 0 12 -19
10 -80z m1580 -832 c19 -2 28 -9 30 -26 3 -19 6 -21 17 -12 20 16 54 -24 100
-119 40 -81 71 -223 77 -351 3 -73 2 -75 -21 -78 -53 -8 -88 7 -116 50 -22 33
-26 49 -22 80 5 34 1 44 -24 71 l-30 32 21 -38 c35 -66 19 -96 -19 -34 -19 31
-26 61 -56 252 -16 97 -20 217 -8 229 4 4 11 -6 15 -23 6 -23 15 -30 36 -33z
m524 -1358 c62 -59 87 -80 96 -80 6 0 13 -7 16 -16 4 -10 13 -13 28 -9 16 4
19 4 9 -3 -19 -13 -4 -34 20 -27 13 4 30 -4 55 -29 21 -20 40 -36 44 -36 3 0
33 -25 66 -55 56 -52 87 -81 165 -150 19 -17 54 -39 79 -49 25 -10 59 -24 75
-31 49 -21 75 -26 170 -32 83 -5 92 -7 117 -34 16 -16 32 -29 38 -29 5 0 24
-7 43 -16 32 -15 36 -15 95 10 81 34 128 34 155 0 19 -25 21 -26 34 -8 11 15
13 8 15 -57 0 -41 2 -94 4 -118 3 -50 -11 -77 -69 -131 -57 -52 -191 -126
-159 -87 6 7 20 39 33 72 12 33 28 67 35 75 29 33 71 150 55 150 -14 0 -111
-201 -111 -229 0 -11 -5 -21 -11 -21 -6 0 -9 -6 -6 -12 6 -19 -20 -66 -43 -78
-30 -16 -163 -40 -220 -40 -38 0 -52 -5 -64 -21 -15 -23 -16 -23 -132 0 -220
42 -469 180 -632 351 -141 147 -237 276 -293 393 -43 91 -39 114 24 146 15 8
54 39 86 68 33 29 62 53 66 53 4 0 6 -33 5 -72 -1 -40 -1 -93 0 -118 l2 -45 9
50 c5 28 10 96 11 153 1 78 4 102 14 102 16 0 17 9 4 30 -6 9 -5 17 3 22 12 7
26 -1 69 -42z"/>
<path d="M3115 4847 c-11 -6 -46 -10 -78 -8 -35 2 -63 -2 -72 -9 -9 -7 -15 -8
-15 -2 0 21 -54 19 -118 -5 -37 -13 -68 -28 -70 -33 -2 -6 -9 -10 -16 -10 -18
0 -88 -70 -83 -83 5 -15 67 -22 67 -8 0 6 -10 11 -22 11 -19 0 -20 2 -8 10 20
13 53 13 45 0 -12 -20 13 -10 50 20 35 28 55 37 55 25 0 -2 -12 -12 -27 -20
l-28 -16 35 6 c71 11 126 50 58 40 l-33 -5 34 12 c27 9 36 9 39 0 5 -17 22
-15 22 3 0 8 5 15 10 15 6 0 10 -4 10 -10 0 -5 8 -10 18 -10 10 0 22 -4 28 -9
17 -16 73 -30 79 -20 4 5 11 9 16 9 6 0 7 -4 4 -10 -3 -5 -2 -10 4 -10 5 0 11
5 13 12 3 9 18 9 63 1 50 -9 56 -8 40 3 -26 19 2 18 35 -1 28 -16 70 -20 70
-6 0 12 -48 61 -60 61 -6 0 -26 11 -43 24 -38 28 -95 39 -122 23z"/>
<path d="M4040 4596 c-39 -15 -41 -29 -11 -81 12 -21 28 -32 56 -38 53 -11 82
4 104 52 l17 40 43 -44 c27 -28 37 -45 29 -48 -27 -9 -1 -15 50 -10 61 6 68
23 25 64 -68 64 -229 98 -313 65z"/>
<path d="M3030 4562 c-93 -38 -120 -55 -139 -88 l-20 -34 44 0 c31 0 45 4 45
13 0 7 14 26 31 43 30 28 32 28 43 10 27 -48 55 -67 93 -65 35 2 83 31 83 50
0 4 5 20 10 35 10 26 11 26 30 9 14 -13 24 -15 31 -8 18 18 -60 47 -136 50
-50 2 -83 -2 -115 -15z"/>
</g>
</svg>
